<svg version="1.0" xmlns="http://www.w3.org/2000/svg" width="96" height="96" viewBox="0 0 72 72"><path d="m6.5 5.4-3 2.4v56.4l3 2.4c3 2.4 3 2.4 29.7 2.4h26.7l2.8-2.4 2.8-2.4.3-27.7.3-27.6-3.2-3L62.8 3H36.1C9.5 3 9.5 3 6.5 5.4zM18 13.5V18h-4.5C9.1 18 9 17.9 9 14.7 9 10.5 10.5 9 14.7 9c3.2 0 3.3.1 3.3 4.5zM48 21v12H24V9h24v12zm13.8-10.8c.7.7 1.2 2.7 1.2 4.5 0 3.2-.1 3.3-4.5 3.3H54v-4.5c0-4.4.1-4.5 3.3-4.5 1.8 0 3.8.5 4.5 1.2zM18 28.5V33H9v-9h9v4.5zm45 0V33h-9v-9h9v4.5zm-45 15V48H9v-9h9v4.5zM48 51v12H24V39h24v12zm15-7.5V48h-9v-9h9v4.5zm-45 15c0 4.4-.1 4.5-3.3 4.5-1.8 0-3.8-.5-4.5-1.2-.7-.7-1.2-2.7-1.2-4.5 0-3.2.1-3.3 4.5-3.3H18v4.5zm45-1.2c0 1.8-.5 3.8-1.2 4.5-.7.7-2.7 1.2-4.5 1.2-3.2 0-3.3-.1-3.3-4.5V54h4.5c4.4 0 4.5.1 4.5 3.3z"/></svg>