<?xml version="1.0" standalone="no"?>
<!DOCTYPE svg PUBLIC "-//W3C//DTD SVG 20010904//EN"
 "http://www.w3.org/TR/2001/REC-SVG-20010904/DTD/svg10.dtd">
<svg version="1.0" xmlns="http://www.w3.org/2000/svg"
 width="72.000000pt" height="72.000000pt" viewBox="0 0 72.000000 72.000000"
 preserveAspectRatio="xMidYMid meet">
<metadata>
Created by potrace 1.14, written by Peter Selinger 2001-2017
</metadata>
<g transform="translate(0.000000,72.000000) scale(0.100000,-0.100000)"
fill="#000000" stroke="none">
<path d="M65 666 l-30 -24 0 -282 0 -282 30 -24 c30 -24 30 -24 297 -24 l267
0 28 24 28 24 3 277 3 276 -32 30 -31 29 -267 0 c-266 0 -266 0 -296 -24z
m115 -81 l0 -45 -45 0 c-44 0 -45 1 -45 33 0 42 15 57 57 57 32 0 33 -1 33
-45z m300 -75 l0 -120 -120 0 -120 0 0 120 0 120 120 0 120 0 0 -120z m138
108 c7 -7 12 -27 12 -45 0 -32 -1 -33 -45 -33 l-45 0 0 45 c0 44 1 45 33 45
18 0 38 -5 45 -12z m-438 -183 l0 -45 -45 0 -45 0 0 45 0 45 45 0 45 0 0 -45z
m450 0 l0 -45 -45 0 -45 0 0 45 0 45 45 0 45 0 0 -45z m-450 -150 l0 -45 -45
0 -45 0 0 45 0 45 45 0 45 0 0 -45z m300 -75 l0 -120 -120 0 -120 0 0 120 0
120 120 0 120 0 0 -120z m150 75 l0 -45 -45 0 -45 0 0 45 0 45 45 0 45 0 0
-45z m-450 -150 c0 -44 -1 -45 -33 -45 -18 0 -38 5 -45 12 -7 7 -12 27 -12 45
0 32 1 33 45 33 l45 0 0 -45z m450 12 c0 -18 -5 -38 -12 -45 -7 -7 -27 -12
-45 -12 -32 0 -33 1 -33 45 l0 45 45 0 c44 0 45 -1 45 -33z"/>
</g>
</svg>
